{"title":"Trust 2010 DVD9rip English Klam","uid":6695721,"size":1450249997,"categoryP":"video","categoryS":"movies","magnet":"?xt=urn:btih:af7a57485db668e96a318362b8e7025e801286f1&amp;dn=Trust+2010+DVD9rip+English+Klam&amp;tr=udp%3A%2F%2Ftracker.openbittorrent.com%3A80&amp;tr=udp%3A%2F%2Fopen.demonii.com%3A1337&amp;tr=udp%3A%2F%2Ftracker.coppersurfer.tk%3A6969&amp;tr=udp%3A%2F%2Fexodus.desync.com%3A6969","seeders":0,"leechers":0,"uploader":"Klambake","files":6,"time":1316772403,"description":"With: Liana Liberato, Clive Owen and Catherine Keener\n\nDe familie Cameron is het perfecte voorbeeld van een gelukkig Amerikaans gezin. Alles loopt voorspoedig tot het moment dat de veertien jaar oude Annie (Liana Liberato) haar eerste vriendje, Charlie, leert kennen via internet. Na maanden van onschuldig communiceren via het web besluit Annie, in een weekend dat ze alleen thuis is, af te spreken met Charlie. Dan komt ze er op een afschuwelijke manier achter dat Charlie (Chris Henry Coffey) niet is wie hij aanvankelijk is. Geschokt door wat hun dochter aangedaan is, gaan Annies ouders (Clive Owen en Catherine Keener) de strijd aan om hun dochter in het reine te laten komen met wat er gebeurd is in haar tot dan toe onschuldige leventje. Een strijd die het hele gezin dreigt te verscheuren...\n\nA teenage girl is targeted by an online sexual predator. \n\n------------------ Dutch Friends ------------------\nYou can find my Friends at: http://www.Film-Test.nl \n------ They got my dutch subs ----- and more ------\n\nGeneral:\n\nComplete name                    : Trust\\Trust.avi\nFormat                           : AVI\nFormat/Info                      : Audio Video Interleave\nFile size                        : 1.35 GiB\nDuration                         : 1h 41mn\nOverall bit rate                 : 1 910 Kbps\n\nVideo:\n\nFormat                           : MPEG-4 Visual\nFormat profile                   : Simple@L3\nFormat settings, BVOP            : No\nFormat settings, QPel            : No\nFormat settings, GMC             : No warppoints\nFormat settings, Matrix          : Default (H.263)\nCodec ID                         : XVID\nCodec ID/Hint                    : XviD\nDuration                         : 1h 41mn\nBit rate                         : 1 451 Kbps\nWidth                            : 720 pixels\nHeight                           : 304 pixels\nDisplay aspect ratio             : 2.35:1\nFrame rate                       : 25.000 fps\nColor space                      : YUV\nChroma subsampling               : 4:2:0\nBit depth                        : 8 bits\nScan type                        : Progressive\nBits/(Pixel*Frame)               : 0.265\nStream size                      : 1.03 GiB (76%)\nWriting library                  : XviD 1.1.2 (UTC 2006-11-01)\n\nAudio:\n\nFormat                           : AC-3\nFormat/Info                      : Audio Coding 3\nMode extension                   : CM (complete main)\nCodec ID                         : 2000\nDuration                         : 1h 41mn\nBit rate mode                    : Constant\nBit rate                         : 448 Kbps\nChannel(s)                       : 6 channels\nChannel positions                : Front: L C R, Side: L R, LFE\nSampling rate                    : 48.0 KHz\nBit depth                        : 16 bits\nStream size                      : 324 MiB (23%)\nAlignment                        : Aligned on interleaves\nInterleave, duration             : 32 ms (0.80 video frame)\nInterleave, preload duration     : 1312 ms\n\n","torrent":{"xt":"urn:btih:af7a57485db668e96a318362b8e7025e801286f1","amp;dn":"Trust+2010+DVD9rip+English+Klam","amp;tr":["udp%3A%2F%2Ftracker.openbittorrent.com%3A80","udp%3A%2F%2Fopen.demonii.com%3A1337","udp%3A%2F%2Ftracker.coppersurfer.tk%3A6969","udp%3A%2F%2Fexodus.desync.com%3A6969"],"infoHash":"af7a57485db668e96a318362b8e7025e801286f1","infoHashBuffer":{"type":"Buffer","data":[175,122,87,72,93,182,104,233,106,49,131,98,184,231,2,94,128,18,134,241]},"announce":[],"urlList":[]}}